<?xml version="1.0" encoding="utf-8"?>
<!-- Generator: Adobe Illustrator 16.0.0, SVG Export Plug-In . SVG Version: 6.00 Build 0)  -->
<!DOCTYPE svg PUBLIC "-//W3C//DTD SVG 1.1//EN" "http://www.w3.org/Graphics/SVG/1.1/DTD/svg11.dtd">
<svg version="1.1"
	 id="Layer_1" image-rendering="optimizeQuality" text-rendering="geometricPrecision" shape-rendering="geometricPrecision"
	 xmlns="http://www.w3.org/2000/svg" xmlns:xlink="http://www.w3.org/1999/xlink" x="0px" y="0px" width="1000px" height="1000px"
	 viewBox="145.661 -30.909 1000 1000" enable-background="new 145.661 -30.909 1000 1000" xml:space="preserve">
<g id="Capa_x0020_1">
	<line fill="none" x1="1023.652" y1="823.265" x2="1023.871" y2="823.265"/>
	<line fill="none" x1="1023.871" y1="823.265" x2="1023.652" y2="823.265"/>
	<path fill="#333333" d="M1054.857,114.917c44.112,0,80.209,36.094,80.209,80.208v23.251l-111.436,79.599L644.26,559.305
		L264.889,295.323v501.411v26.531h-28.554c-44.113,0-80.208-36.093-80.208-80.207V195.146c0-44.113,36.094-80.208,80.208-80.208
		L644.26,417.383l410.577-302.445L1054.857,114.917z"/>
	
		<linearGradient id="SVGID_1_" gradientUnits="userSpaceOnUse" x1="1681.3213" y1="-7005.0181" x2="20161.4688" y2="-7005.0181" gradientTransform="matrix(0.0283 0 0 -0.0283 336.014 67.5717)">
		<stop  offset="0" style="stop-color:#F8F6EF"/>
		<stop  offset="1" style="stop-color:#E7E4D6"/>
	</linearGradient>
	<polygon fill="url(#SVGID_1_)" points="236.334,114.917 644.26,417.362 1054.857,114.917 	"/>
	<polygon fill="#E7E4D7" points="264.889,295.323 264.889,823.265 1023.652,823.265 1023.652,297.974 644.26,559.305 	"/>
	<polygon fill="#B8B7AE" points="264.889,823.265 644.26,559.305 642.543,558.089 264.889,817.464 	"/>
	<polygon fill="#CCCAC0" points="1023.652,297.974 1023.871,823.265 644.26,559.305 	"/>
	<path fill="#333333" d="M1135.066,218.375l0.13,524.75c-1.912,58.324-27.187,79.143-111.325,80.119l-0.219-525.291l111.436-79.599
		L1135.066,218.375z"/>
	
		<linearGradient id="SVGID_2_" gradientUnits="userSpaceOnUse" x1="1681.3213" y1="-7005.0181" x2="20161.4688" y2="-7005.0181" gradientTransform="matrix(0.0283 0 0 -0.0283 336.014 67.5717)">
		<stop  offset="0" style="stop-color:#F8F6EF"/>
		<stop  offset="1" style="stop-color:#E7E4D6"/>
	</linearGradient>
	<polygon fill="url(#SVGID_2_)" points="236.334,114.917 644.26,417.362 1054.857,114.917 	"/>
	
		<linearGradient id="SVGID_3_" gradientUnits="userSpaceOnUse" x1="1681.3213" y1="-7005.0181" x2="20161.4688" y2="-7005.0181" gradientTransform="matrix(0.0283 0 0 -0.0283 336.014 67.5717)">
		<stop  offset="0" style="stop-color:#F8F6EF"/>
		<stop  offset="1" style="stop-color:#E7E4D6"/>
	</linearGradient>
	<polygon fill="url(#SVGID_3_)" points="236.334,114.917 644.26,417.362 1054.857,114.917 	"/>
	
		<linearGradient id="SVGID_4_" gradientUnits="userSpaceOnUse" x1="1681.3213" y1="-7005.0181" x2="20161.4688" y2="-7005.0181" gradientTransform="matrix(0.0283 0 0 -0.0283 336.014 67.5717)">
		<stop  offset="0" style="stop-color:#F8F6EF"/>
		<stop  offset="1" style="stop-color:#E7E4D6"/>
	</linearGradient>
	<polygon fill="url(#SVGID_4_)" points="236.334,114.917 644.26,417.362 1054.857,114.917 	"/>
	
		<linearGradient id="SVGID_5_" gradientUnits="userSpaceOnUse" x1="1681.3213" y1="-7005.0181" x2="20161.4688" y2="-7005.0181" gradientTransform="matrix(0.0283 0 0 -0.0283 336.014 67.5717)">
		<stop  offset="0" style="stop-color:#F8F6EF"/>
		<stop  offset="1" style="stop-color:#E7E4D6"/>
	</linearGradient>
	<polygon fill="url(#SVGID_5_)" points="236.334,114.917 644.26,417.362 1054.857,114.917 	"/>
	
		<linearGradient id="SVGID_6_" gradientUnits="userSpaceOnUse" x1="1681.3213" y1="-7005.0181" x2="20161.4688" y2="-7005.0181" gradientTransform="matrix(0.0283 0 0 -0.0283 336.014 67.5717)">
		<stop  offset="0" style="stop-color:#F8F6EF"/>
		<stop  offset="1" style="stop-color:#E7E4D6"/>
	</linearGradient>
	<polygon fill="url(#SVGID_6_)" points="236.334,114.917 644.26,417.362 1054.857,114.917 	"/>
	
		<linearGradient id="SVGID_7_" gradientUnits="userSpaceOnUse" x1="1681.3213" y1="-7005.0181" x2="20161.4688" y2="-7005.0181" gradientTransform="matrix(0.0283 0 0 -0.0283 336.014 67.5717)">
		<stop  offset="0" style="stop-color:#F8F6EF"/>
		<stop  offset="1" style="stop-color:#E7E4D6"/>
	</linearGradient>
	<polygon fill="url(#SVGID_7_)" points="236.334,114.917 644.26,417.362 1054.857,114.917 	"/>
	
		<linearGradient id="SVGID_8_" gradientUnits="userSpaceOnUse" x1="1681.3213" y1="-7005.0181" x2="20161.4688" y2="-7005.0181" gradientTransform="matrix(0.0283 0 0 -0.0283 336.014 67.5717)">
		<stop  offset="0" style="stop-color:#F8F6EF"/>
		<stop  offset="1" style="stop-color:#E7E4D6"/>
	</linearGradient>
	<polygon fill="url(#SVGID_8_)" points="236.334,114.917 644.26,417.362 1054.857,114.917 	"/>
	<polygon fill="#F7F5ED" points="236.334,114.917 644.26,417.362 1054.857,114.917 	"/>
</g>
</svg>
